  <svg
    xmlns:dc="http://purl.org/dc/elements/1.1/"
    xmlns:cc="http://creativecommons.org/ns#"
    xmlns:rdf="http://www.w3.org/1999/02/22-rdf-syntax-ns#"
    xmlns:svg="http://www.w3.org/2000/svg"
    xmlns="http://www.w3.org/2000/svg"
    xmlns:xlink="http://www.w3.org/1999/xlink"
    xmlns:sodipodi="http://sodipodi.sourceforge.net/DTD/sodipodi-0.dtd"
    xmlns:inkscape="http://www.inkscape.org/namespaces/inkscape"
    width="144.5"
    height="150.5"
    id="Kepler-Poinsot solids, by Tintazul (Júlio Reis) - License: CC-BY-SA-2.5"
    version="1.0"
    sodipodi:version="0.32"
    inkscape:version="0.91 r13725"
    sodipodi:docname="Kepler-Poinsot_solids (copy).svg"
    inkscape:output_extension="org.inkscape.output.svg.inkscape"
  >
    <metadata id="metadata2732">
      <rdf:RDF>
        <cc:Work rdf:about="">
          <dc:format>image/svg+xml</dc:format>
          <dc:type rdf:resource="http://purl.org/dc/dcmitype/StillImage" />
          <dc:title />
        </cc:Work>
      </rdf:RDF>
    </metadata>
    <sodipodi:namedview
      inkscape:window-height="1416"
      inkscape:window-width="3395"
      inkscape:pageshadow="2"
      inkscape:pageopacity="0.0"
      guidetolerance="10.0"
      gridtolerance="10.0"
      objecttolerance="10.0"
      borderopacity="1.0"
      bordercolor="#666666"
      pagecolor="#ffffff"
      id="base"
      showgrid="false"
      inkscape:zoom="2"
      inkscape:cx="-353.62463"
      inkscape:cy="58.27762"
      inkscape:window-x="45"
      inkscape:window-y="24"
      inkscape:current-layer="Kepler-Poinsot solids, by Tintazul (Júlio Reis) - License: CC-BY-SA-2.5"
      inkscape:window-maximized="1"
      showguides="true"
      inkscape:guide-bbox="true"
      fit-margin-top="0"
      fit-margin-left="0"
      fit-margin-right="0"
      fit-margin-bottom="0"
    />
    <defs id="defs2384">
      <inkscape:perspective
        sodipodi:type="inkscape:persp3d"
        inkscape:vp_x="0 : 195 : 1"
        inkscape:vp_y="0 : 1000 : 0"
        inkscape:vp_z="880 : 195 : 1"
        inkscape:persp3d-origin="440 : 130 : 1"
        id="perspective2734"
      />
      <rect
        transform="matrix(-0.5877825,-0.809015,0.5877825,-0.809015,0,0)"
        height="61.803345"
        width="61.803345"
        id="pd1"
        x="0"
        y="0"
      />
      <polygon points="-36.32719,50 0,100 0,100 0,0 " id="pd2" />
      <polygon points="0,-38.1966 -38.98357,-53.65627 -38.98357,-53.65627 0,0 " id="gd1" />
      <polygon
        points="-22.4514,-30.9017 22.4514,-30.9017 22.4514,-30.9017 0,-100 "
        id="gde"
        style="fill:#fce94f;stroke:#ef2929;stroke-width:0.69999999"
      />
      <polygon points="95.10565,30.9017 0,0 0,0 95.10565,-30.9017 " id="gbd" />
      <polygon points="0,0 22.4514,-30.9017 22.4514,-30.9017 0,-100 " id="gad" />
      <polygon
        points="58.77853,80.9017 -58.77853,80.9017 -95.10565,-30.9017 0,-100 0,-100 95.10565,-30.9017 "
        id="pnt"
        style="fill:#fce94f;stroke:#ef2929;stroke-width:0.69999999"
      />
      <polygon points="0,0 8.57567,11.8034 8.57567,11.8034 0,38.1966 " id="gi1" />
      <polygon points="-22.4514,-30.9017 0,0 0,0 22.4514,-30.9017 " id="gi2" />
      <polygon points="0,0 13.87573,19.0983 13.87573,19.0983 0,61.8034 " id="gi3" />
      <polygon
        points="-95.10565,-30.9017 0,100 0,100 95.10565,-30.9017 "
        id="gic"
        style="fill:#fce94f;stroke:#ef2929;stroke-width:0.69999999"
      />
    </defs>
    <g id="g4809" transform="translate(-487.60698,-41.780392)">
      <use
        transform="matrix(0.7258583,0,0,0.7258583,559.85698,117.08031)"
        xlink:href="#gbd"
        id="use2649"
        x="0"
        y="0"
        width="880"
        height="390"
        style="fill:#808080;stroke:#000000;stroke-width:0.86104959;stroke-linejoin:round;stroke-miterlimit:4;stroke-dasharray:none"
      />
      <use
        xlink:href="#gbd"
        transform="matrix(0.22430255,0.69033225,-0.69033225,0.22430255,559.85698,117.08031)"
        id="use2651"
        x="0"
        y="0"
        width="880"
        height="390"
        style="fill:#999999;stroke:#000000;stroke-width:0.86104959;stroke-linejoin:round;stroke-miterlimit:4;stroke-dasharray:none"
      />
      <use
        xlink:href="#gbd"
        transform="matrix(-0.5872317,0.42664884,-0.42664884,-0.5872317,559.85698,117.08031)"
        id="use2653"
        x="0"
        y="0"
        width="880"
        height="390"
        style="fill:#cccccc;stroke:#000000;stroke-width:0.86104959;stroke-linejoin:round;stroke-miterlimit:4;stroke-dasharray:none"
      />
      <use
        xlink:href="#gbd"
        transform="matrix(0.22430255,-0.69033225,0.69033225,0.22430255,559.85698,117.08031)"
        id="use2655"
        x="0"
        y="0"
        width="880"
        height="390"
        style="fill:#b3b3b3;stroke:#000000;stroke-width:0.86104959;stroke-linejoin:round;stroke-miterlimit:4;stroke-dasharray:none"
      />
      <use
        xlink:href="#gbd"
        transform="matrix(-0.5872317,-0.42664884,0.42664884,-0.5872317,559.85698,117.08031)"
        id="use2657"
        x="0"
        y="0"
        width="880"
        height="390"
        style="fill:#ececec;stroke:#000000;stroke-width:0.86104959;stroke-linejoin:round;stroke-miterlimit:4;stroke-dasharray:none"
      />
      <use
        transform="matrix(-0.7258583,0,0,0.7258583,559.85698,117.08031)"
        xlink:href="#gbd"
        id="use2661"
        x="0"
        y="0"
        width="880"
        height="390"
        style="fill:#999999;stroke:#000000;stroke-width:0.86104959;stroke-linejoin:round;stroke-miterlimit:4;stroke-dasharray:none"
      />
      <use
        xlink:href="#gbd"
        transform="matrix(-0.22430255,0.69033225,0.69033225,0.22430255,559.85698,117.08031)"
        id="use2663"
        x="0"
        y="0"
        width="880"
        height="390"
        style="fill:#808080;stroke:#000000;stroke-width:0.86104959;stroke-linejoin:round;stroke-miterlimit:4;stroke-dasharray:none"
      />
      <use
        xlink:href="#gbd"
        transform="matrix(0.5872317,0.42664884,0.42664884,-0.5872317,559.85698,117.08031)"
        id="use2665"
        x="0"
        y="0"
        width="880"
        height="390"
        style="fill:#b3b3b3;stroke:#000000;stroke-width:0.86104959;stroke-linejoin:round;stroke-miterlimit:4;stroke-dasharray:none"
      />
      <use
        xlink:href="#gbd"
        transform="matrix(-0.22430255,-0.69033225,-0.69033225,0.22430255,559.85698,117.08031)"
        id="use2667"
        x="0"
        y="0"
        width="880"
        height="390"
        style="fill:#cccccc;stroke:#000000;stroke-width:0.86104959;stroke-linejoin:round;stroke-miterlimit:4;stroke-dasharray:none"
      />
      <use
        xlink:href="#gbd"
        transform="matrix(0.5872317,-0.42664884,-0.42664884,-0.5872317,559.85698,117.08031)"
        id="use2669"
        x="0"
        y="0"
        width="880"
        height="390"
        style="fill:#ececec;stroke:#000000;stroke-width:0.86104959;stroke-linejoin:round;stroke-miterlimit:4;stroke-dasharray:none"
      />
      <use
        transform="matrix(0.7258583,0,0,0.7258583,559.85698,117.08031)"
        height="390"
        width="880"
        y="0"
        x="0"
        id="use2671"
        xlink:href="#pnt"
        style="stroke:#000000;stroke-width:1;stroke-linejoin:round"
      />
      <use
        xlink:href="#gad"
        transform="matrix(-0.5872317,0.42664884,-0.42664884,-0.5872317,559.85698,117.08031)"
        id="use2679"
        x="0"
        y="0"
        width="880"
        height="390"
        style="fill:#999999;stroke:#000000;stroke-width:0.86104959;stroke-linejoin:round;stroke-miterlimit:4;stroke-dasharray:none"
      />
      <g style="stroke-width:0.625;stroke-miterlimit:4;stroke-dasharray:none" id="g4626">
        <use
          style="fill:#d4d4d4;stroke:#000000;stroke-width:0.86104959;stroke-linejoin:round;stroke-miterlimit:4;stroke-dasharray:none"
          height="390"
          width="880"
          y="0"
          x="0"
          id="use2683"
          transform="matrix(-0.5872317,-0.42664884,0.42664884,-0.5872317,559.85698,117.08031)"
          xlink:href="#gad"
        />
        <use
          style="fill:#cccccc;stroke:#000000;stroke-width:0.86072326;stroke-linejoin:round;stroke-miterlimit:4;stroke-dasharray:none"
          height="390"
          width="880"
          y="0"
          x="0"
          id="use2687"
          xlink:href="#gad"
          transform="matrix(-0.7258583,0,0,0.72640879,559.85698,117.03549)"
        />
      </g>
      <g
        style="fill:#808080;stroke-width:0.625;stroke-miterlimit:4;stroke-dasharray:none"
        id="g4630"
      >
        <use
          style="fill:#808080;stroke:#000000;stroke-width:0.86104959;stroke-linejoin:round;stroke-miterlimit:4;stroke-dasharray:none"
          height="390"
          width="880"
          y="0"
          x="0"
          id="use2677"
          transform="matrix(0.22430255,0.69033225,-0.69033225,0.22430255,559.85698,117.08031)"
          xlink:href="#gad"
        />
        <use
          style="fill:#808080;stroke:#000000;stroke-width:0.86072326;stroke-linejoin:round;stroke-miterlimit:4;stroke-dasharray:none"
          height="390"
          width="880"
          y="0"
          x="0"
          id="use2691"
          transform="matrix(0.5872317,0.42697241,0.42664884,-0.58767706,559.85698,117.03549)"
          xlink:href="#gad"
        />
      </g>
      <use
        xlink:href="#gad"
        transform="matrix(-0.22430255,0.69033225,0.69033225,0.22430255,559.85698,117.08031)"
        id="use2689"
        x="0"
        y="0"
        width="880"
        height="390"
        style="fill:#999999;stroke:#000000;stroke-width:0.86104959;stroke-linejoin:round;stroke-miterlimit:4;stroke-dasharray:none"
      />
      <g style="stroke-width:0.625;stroke-miterlimit:4;stroke-dasharray:none" id="g4640">
        <use
          style="fill:#ececec;stroke:#000000;stroke-width:0.86104959;stroke-linejoin:round;stroke-miterlimit:4;stroke-dasharray:none"
          height="390"
          width="880"
          y="0"
          x="0"
          id="use2681"
          transform="matrix(0.22430255,-0.69033225,0.69033225,0.22430255,559.85698,117.08031)"
          xlink:href="#gad"
        />
        <use
          style="fill:#ececec;stroke:#000000;stroke-width:0.86104959;stroke-linejoin:round;stroke-miterlimit:4;stroke-dasharray:none"
          height="390"
          width="880"
          y="0"
          x="0"
          id="use2693"
          transform="matrix(-0.22430255,-0.69033225,-0.69033225,0.22430255,559.85698,117.08031)"
          xlink:href="#gad"
        />
      </g>
      <g
        style="fill:#b3b3b3;stroke-width:0.625;stroke-miterlimit:4;stroke-dasharray:none"
        id="g4620"
      >
        <use
          style="fill:#b3b3b3;stroke:#000000;stroke-width:0.86104959;stroke-linejoin:round;stroke-miterlimit:4;stroke-dasharray:none"
          height="390"
          width="880"
          y="0"
          x="0"
          id="use2675"
          xlink:href="#gad"
          transform="matrix(0.7258583,0,0,0.7258583,559.85698,117.08031)"
        />
        <use
          style="fill:#b3b3b3;stroke:#000000;stroke-width:0.86104959;stroke-linejoin:round;stroke-miterlimit:4;stroke-dasharray:none"
          height="390"
          width="880"
          y="0"
          x="0"
          id="use2695"
          transform="matrix(0.5872317,-0.42664884,-0.42664884,-0.5872317,559.85698,117.08031)"
          xlink:href="#gad"
        />
      </g>
    </g>
  </svg>
