<svg xmlns="http://www.w3.org/2000/svg" viewBox="0 0 755 848" font-family="monospace">
<rect width="100%" height="100%" fill="white"/>
<polygon points="377.71,563.12 377.71,377.71 227.71,320.41 135.00,470.41 227.71,620.41" fill="#fdf3d0" stroke="none"/>
<polygon points="527.71,620.41 620.41,470.41 527.71,320.41 377.71,377.71 377.71,563.12" fill="#fdf3d0" stroke="none"/>
<line x1="377.71" y1="377.71" x2="377.71" y2="563.12" stroke="#dedede" stroke-width="1.2" stroke-dasharray="5,4"/>
<line x1="527.71" y1="320.41" x2="377.71" y2="377.71" stroke="#dedede" stroke-width="1.2" stroke-dasharray="5,4"/>
<line x1="620.41" y1="470.41" x2="527.71" y2="320.41" stroke="#dedede" stroke-width="1.2" stroke-dasharray="5,4"/>
<line x1="527.71" y1="620.41" x2="620.41" y2="470.41" stroke="#dedede" stroke-width="1.2" stroke-dasharray="5,4"/>
<line x1="377.71" y1="563.12" x2="527.71" y2="620.41" stroke="#dedede" stroke-width="1.2" stroke-dasharray="5,4"/>
<line x1="135.00" y1="470.41" x2="227.71" y2="620.41" stroke="#dedede" stroke-width="1.2" stroke-dasharray="5,4"/>
<line x1="227.71" y1="320.41" x2="135.00" y2="470.41" stroke="#dedede" stroke-width="1.2" stroke-dasharray="5,4"/>
<line x1="377.71" y1="377.71" x2="227.71" y2="320.41" stroke="#dedede" stroke-width="1.2" stroke-dasharray="5,4"/>
<line x1="227.71" y1="620.41" x2="377.71" y2="563.12" stroke="#dedede" stroke-width="1.2" stroke-dasharray="5,4"/>
<line x1="135.00" y1="470.41" x2="135.00" y2="470.41" stroke="#dedede" stroke-width="1.2" stroke-dasharray="5,4"/>
<line x1="227.71" y1="320.41" x2="285.00" y2="227.71" stroke="#dedede" stroke-width="1.2" stroke-dasharray="5,4"/>
<line x1="620.41" y1="470.41" x2="620.41" y2="470.41" stroke="#dedede" stroke-width="1.2" stroke-dasharray="5,4"/>
<line x1="527.71" y1="620.41" x2="470.41" y2="713.12" stroke="#dedede" stroke-width="1.2" stroke-dasharray="5,4"/>
<line x1="285.00" y1="713.12" x2="227.71" y2="620.41" stroke="#dedede" stroke-width="1.2" stroke-dasharray="5,4"/>
<line x1="470.41" y1="227.71" x2="527.71" y2="320.41" stroke="#dedede" stroke-width="1.2" stroke-dasharray="5,4"/>
<line x1="377.71" y1="377.71" x2="377.71" y2="563.12" stroke="#b5b5b5" stroke-width="1.6"/>
<line x1="227.71" y1="320.41" x2="377.71" y2="377.71" stroke="#b5b5b5" stroke-width="1.6"/>
<line x1="135.00" y1="470.41" x2="227.71" y2="320.41" stroke="#b5b5b5" stroke-width="1.6"/>
<line x1="227.71" y1="620.41" x2="135.00" y2="470.41" stroke="#b5b5b5" stroke-width="1.6"/>
<line x1="377.71" y1="563.12" x2="227.71" y2="620.41" stroke="#b5b5b5" stroke-width="1.6"/>
<line x1="620.41" y1="470.41" x2="527.71" y2="620.41" stroke="#b5b5b5" stroke-width="1.6"/>
<line x1="527.71" y1="320.41" x2="620.41" y2="470.41" stroke="#b5b5b5" stroke-width="1.6"/>
<line x1="377.71" y1="377.71" x2="527.71" y2="320.41" stroke="#b5b5b5" stroke-width="1.6"/>
<line x1="527.71" y1="620.41" x2="377.71" y2="563.12" stroke="#b5b5b5" stroke-width="1.6"/>
<line x1="285.00" y1="227.71" x2="227.71" y2="320.41" stroke="#b5b5b5" stroke-width="1.6"/>
<line x1="470.41" y1="713.12" x2="527.71" y2="620.41" stroke="#b5b5b5" stroke-width="1.6"/>
<line x1="227.71" y1="620.41" x2="285.00" y2="713.12" stroke="#b5b5b5" stroke-width="1.6"/>
<line x1="527.71" y1="320.41" x2="470.41" y2="227.71" stroke="#b5b5b5" stroke-width="1.6"/>
<line x1="285.00" y1="227.71" x2="470.41" y2="227.71" stroke="#b5b5b5" stroke-width="1.6"/>
<line x1="285.00" y1="713.12" x2="470.41" y2="713.12" stroke="#b5b5b5" stroke-width="1.6"/>
<line x1="377.71" y1="563.12" x2="377.71" y2="377.71" stroke="#1a237e" stroke-width="3" stroke-linecap="round"/>
<line x1="377.71" y1="377.71" x2="227.71" y2="320.41" stroke="#1a237e" stroke-width="3" stroke-linecap="round"/>
<line x1="227.71" y1="320.41" x2="377.71" y2="563.12" stroke="#1a237e" stroke-width="3" stroke-linecap="round"/>
<line x1="377.71" y1="563.12" x2="377.71" y2="377.71" stroke="#1a237e" stroke-width="3" stroke-linecap="round"/>
<line x1="377.71" y1="377.71" x2="377.71" y2="192.29" stroke="#1a237e" stroke-width="3" stroke-linecap="round"/>
<line x1="377.71" y1="192.29" x2="227.71" y2="135.00" stroke="#1a237e" stroke-width="3" stroke-linecap="round"/>
<line x1="227.71" y1="135.00" x2="377.71" y2="377.71" stroke="#1a237e" stroke-width="3" stroke-linecap="round"/>
<text x="269.16" y="470.41" font-size="17" fill="#8d6e00" text-anchor="middle" opacity="0.75">A+</text>
<text x="486.25" y="470.41" font-size="17" fill="#8d6e00" text-anchor="middle" opacity="0.75">B+</text>
<circle cx="377.71" cy="563.12" r="3" fill="#1a237e"/>
<circle cx="377.71" cy="377.71" r="3" fill="#1a237e"/>
<circle cx="227.71" cy="320.41" r="3" fill="#1a237e"/>
<circle cx="377.71" cy="377.71" r="3" fill="#1a237e"/>
<circle cx="377.71" cy="192.29" r="3" fill="#1a237e"/>
<circle cx="227.71" cy="135.00" r="3" fill="#1a237e"/>
<circle cx="377.71" cy="563.12" r="5" fill="#c62828"/>
<circle cx="377.71" cy="377.71" r="4.5" fill="#e65100"/>
<text x="384.71" y="556.12" font-size="11" fill="#333">start A+ (P(0,0),P(0,0))</text>
<text x="384.71" y="370.71" font-size="11" fill="#333">fold&#8594;B+ (P(0,0),P(0,1))</text>
<text x="384.71" y="370.71" font-size="11" fill="#333">end B+ (P(0,0),P(0,1))</text>
</svg>