<svg xmlns="http://www.w3.org/2000/svg" viewBox="0 0 3706 1359" font-family="monospace">
<defs><marker id="arrow" viewBox="0 0 10 10" refX="9" refY="5" markerWidth="6" markerHeight="6" orient="auto-start-reverse"><path d="M0,0 L10,5 L0,10 z" fill="#2e7d32"/></marker></defs>
<rect width="100%" height="100%" fill="white"/>
<line x1="156.00" y1="1203.47" x2="706.69" y2="1203.47" stroke="#1a237e" stroke-width="2.54" stroke-linecap="round"/>
<line x1="706.69" y1="1203.47" x2="1597.72" y2="1203.47" stroke="#1a237e" stroke-width="2.54" stroke-linecap="round"/>
<line x1="1597.72" y1="1203.47" x2="1152.21" y2="879.79" stroke="#1a237e" stroke-width="2.54" stroke-linecap="round"/>
<line x1="1152.21" y1="879.79" x2="431.34" y2="356.05" stroke="#1a237e" stroke-width="2.54" stroke-linecap="round"/>
<line x1="431.34" y1="356.05" x2="156.00" y2="1203.47" stroke="#1a237e" stroke-width="2.54" stroke-linecap="round"/>
<line x1="156.00" y1="1203.47" x2="876.86" y2="679.74" stroke="#1a237e" stroke-width="2.54" stroke-linecap="round"/>
<line x1="2658.93" y1="679.74" x2="3549.96" y2="679.74" stroke="#1a237e" stroke-width="2.54" stroke-linecap="round"/>
<line x1="3549.96" y1="679.74" x2="2829.10" y2="156.00" stroke="#1a237e" stroke-width="2.54" stroke-linecap="round"/>
<line x1="2829.10" y1="156.00" x2="2658.93" y2="679.74" stroke="#1a237e" stroke-width="2.54" stroke-linecap="round"/>
<line x1="2658.93" y1="679.74" x2="3104.44" y2="356.05" stroke="#1a237e" stroke-width="2.54" stroke-linecap="round"/>
<circle cx="156.00" cy="1203.47" r="4.66" fill="#c62828"/>
<text x="164.47" y="1195.00" font-size="64" fill="#333">(P(0,0),P(0,0))</text>
<circle cx="706.69" cy="1203.47" r="4.66" fill="#1a237e"/>
<circle cx="1597.72" cy="1203.47" r="4.66" fill="#1a237e"/>
<text x="1606.19" y="1195.00" font-size="64" fill="#333">(P(1,1),P(0,0))</text>
<circle cx="1152.21" cy="879.79" r="4.66" fill="#1a237e"/>
<circle cx="431.34" cy="356.05" r="4.66" fill="#1a237e"/>
<text x="439.82" y="347.58" font-size="64" fill="#333">(P(0,0),P(0,1))</text>
<circle cx="876.86" cy="679.74" r="4.66" fill="#1a237e"/>
<text x="885.33" y="671.26" font-size="64" fill="#333">(P(1,0),P(1,0))</text>
<circle cx="2658.93" cy="679.74" r="4.66" fill="#1a237e"/>
<text x="2667.40" y="671.26" font-size="64" fill="#333">(P(1,2),P(1,0))</text>
<circle cx="3549.96" cy="679.74" r="4.66" fill="#1a237e"/>
<text x="3558.43" y="671.26" font-size="64" fill="#333">(P(1,3),P(1,0))</text>
<circle cx="2829.10" cy="156.00" r="4.66" fill="#1a237e"/>
<text x="2837.57" y="147.53" font-size="64" fill="#333">(P(1,2),P(2,0))</text>
<circle cx="3104.44" cy="356.05" r="4.66" fill="#1a237e"/>
<text x="3112.92" y="347.58" font-size="64" fill="#333">(P(0,3),P(0,1))</text>
<line x1="3104.44" y1="356.05" x2="3169.56" y2="308.74" stroke="#2e7d32" stroke-width="4.24" stroke-linecap="round" marker-end="url(#arrow)"/>
<text x="12" y="1355" font-size="34" fill="#666">basis: e0=(1,0), e72=(cos72&#176;,sin72&#176;) &#8212; coordinates are exact P(n,p) = n + p&#183;&#966;</text>
</svg>