<svg xmlns="http://www.w3.org/2000/svg" viewBox="0 0 3746 312" font-family="monospace">
<defs><marker id="arrow" viewBox="0 0 10 10" refX="9" refY="5" markerWidth="6" markerHeight="6" orient="auto-start-reverse"><path d="M0,0 L10,5 L0,10 z" fill="#2e7d32"/></marker></defs>
<rect width="100%" height="100%" fill="white"/>
<line x1="156.00" y1="156.00" x2="706.69" y2="156.00" stroke="#1a237e" stroke-width="5.08" stroke-linecap="round"/>
<line x1="706.69" y1="156.00" x2="1257.38" y2="156.00" stroke="#1a237e" stroke-width="5.08" stroke-linecap="round"/>
<line x1="1257.38" y1="156.00" x2="2148.41" y2="156.00" stroke="#1a237e" stroke-width="5.08" stroke-linecap="round"/>
<line x1="2148.41" y1="156.00" x2="2699.10" y2="156.00" stroke="#1a237e" stroke-width="5.08" stroke-linecap="round"/>
<line x1="2699.10" y1="156.00" x2="3590.13" y2="156.00" stroke="#1a237e" stroke-width="5.08" stroke-linecap="round"/>
<circle cx="156.00" cy="156.00" r="14.83" fill="#c62828"/>
<text x="164.47" y="139.06" font-size="127" fill="#333">P(0,0)</text>
<circle cx="706.69" cy="156.00" r="14.83" fill="#1a237e"/>
<text x="715.16" y="139.06" font-size="127" fill="#333">P(1,0)</text>
<circle cx="1257.38" cy="156.00" r="14.83" fill="#1a237e"/>
<text x="1265.85" y="139.06" font-size="127" fill="#333">P(2,0)</text>
<circle cx="2148.41" cy="156.00" r="14.83" fill="#1a237e"/>
<text x="2156.88" y="139.06" font-size="127" fill="#333">P(2,1)</text>
<circle cx="2699.10" cy="156.00" r="14.83" fill="#1a237e"/>
<text x="2707.57" y="139.06" font-size="127" fill="#333">P(3,1)</text>
<circle cx="3590.13" cy="156.00" r="14.83" fill="#1a237e"/>
<text x="3598.61" y="139.06" font-size="127" fill="#333">P(3,2)</text>
<line x1="3590.13" y1="156.00" x2="3670.62" y2="156.00" stroke="#2e7d32" stroke-width="4.24" stroke-linecap="round" marker-end="url(#arrow)"/>
</svg>