<svg xmlns="http://www.w3.org/2000/svg" viewBox="0 0 652 836" font-family="monospace">
<defs><marker id="arrow" viewBox="0 0 10 10" refX="9" refY="5" markerWidth="6" markerHeight="6" orient="auto-start-reverse"><path d="M0,0 L10,5 L0,10 z" fill="#2e7d32"/></marker></defs>
<rect width="100%" height="100%" fill="white"/>
<line x1="156.00" y1="279.64" x2="286.00" y2="279.64" stroke="#1a237e" stroke-width="2.54" stroke-linecap="round"/>
<line x1="286.00" y1="279.64" x2="326.17" y2="156.00" stroke="#1a237e" stroke-width="2.54" stroke-linecap="round"/>
<line x1="326.17" y1="156.00" x2="156.00" y2="279.64" stroke="#8e3b1f" stroke-width="3.60" stroke-linecap="round"/>
<line x1="286.00" y1="679.74" x2="496.34" y2="679.74" stroke="#8e3b1f" stroke-width="3.60" stroke-linecap="round"/>
<line x1="496.34" y1="679.74" x2="326.17" y2="556.10" stroke="#8e3b1f" stroke-width="3.60" stroke-linecap="round"/>
<line x1="326.17" y1="556.10" x2="286.00" y2="679.74" stroke="#1a237e" stroke-width="2.54" stroke-linecap="round"/>
<circle cx="156.00" cy="279.64" r="4.66" fill="#c62828"/>
<text x="164.47" y="271.17" font-size="64" fill="#333">(P(0,0),P(0,0))</text>
<circle cx="286.00" cy="279.64" r="4.66" fill="#1a237e"/>
<text x="294.47" y="271.17" font-size="64" fill="#333">(P(0,1),P(0,0))</text>
<circle cx="326.17" cy="156.00" r="4.66" fill="#1a237e"/>
<text x="334.64" y="147.53" font-size="64" fill="#333">(P(0,1),P(0,1))</text>
<circle cx="221.00" cy="479.69" r="4.66" fill="#1a237e"/>
<circle cx="286.00" cy="679.74" r="4.66" fill="#1a237e"/>
<text x="294.47" y="671.26" font-size="64" fill="#333">(P(0,2),P(-2,0))</text>
<circle cx="496.34" cy="679.74" r="4.66" fill="#1a237e"/>
<text x="504.82" y="671.26" font-size="64" fill="#333">(P(1,2),P(-2,0))</text>
<circle cx="326.17" cy="556.10" r="4.66" fill="#1a237e"/>
<text x="334.64" y="547.63" font-size="64" fill="#333">(P(0,2),P(-2,1))</text>
<line x1="286.00" y1="679.74" x2="366.49" y2="679.74" stroke="#2e7d32" stroke-width="4.24" stroke-linecap="round" marker-end="url(#arrow)"/>
<text x="12" y="832" font-size="34" fill="#666">basis: e0=(1,0), e72=(cos72°,sin72°) — heading in 36° steps, exact pair (a,b) with a,b in Z[φ]</text>
</svg>